<svg width="125" height="48" viewBox="0 0 125 48" fill="none" xmlns="http://www.w3.org/2000/svg">
<path d="M118.568 38.2988H119.864V38.9814H118.568V42.1348C118.568 42.231 118.585 42.3205 118.619 42.4033L118.684 42.5176C118.709 42.5532 118.737 42.5862 118.768 42.6172C118.83 42.6786 118.902 42.7283 118.985 42.7656C119.068 42.7995 119.159 42.8174 119.255 42.8174H119.864V43.5H119.255C119.063 43.5 118.881 43.4639 118.709 43.3916H118.708C118.539 43.3194 118.392 43.2191 118.264 43.0918H118.263C118.14 42.9646 118.04 42.8163 117.964 42.6484V42.6475C117.892 42.4782 117.855 42.2968 117.855 42.1045V38.9814H116.939V38.2988H117.855V37.0801L117.897 37.0732L118.51 36.9736L118.568 36.9648V38.2988ZM121.08 38.2988L121.091 38.332L122.393 42.1182L123.692 38.332L123.704 38.2988H124.423L124.399 38.3652L122.59 43.4668L122.579 43.5H122.205L122.193 43.4668L120.384 38.3652L120.361 38.2988H121.08Z" fill="#111111" stroke="#111111" stroke-width="0.1"/>
<g filter="url(#filter0_di_23376_1823)">
<path d="M11.9392 45.9205C9.99105 45.9205 8.26823 45.6023 6.7707 44.966C5.28643 44.3164 4.12021 43.3353 3.27205 42.0229C2.4239 40.7104 1.99982 39.0401 1.99982 37.0117C1.99982 35.3414 2.28474 33.9162 2.8546 32.7364C3.42446 31.5432 4.2196 30.5688 5.24004 29.8132C6.26048 29.0575 7.44658 28.4809 8.79833 28.0831C10.1633 27.6854 11.6344 27.4269 13.2114 27.3076C14.921 27.175 16.2926 27.016 17.3263 26.8304C18.3732 26.6315 19.1286 26.3597 19.5925 26.015C20.0563 25.6571 20.2882 25.1865 20.2882 24.6032V24.5236C20.2882 23.7282 19.9834 23.1184 19.3738 22.6942C18.7642 22.2699 17.9823 22.0578 17.0281 22.0578C15.9812 22.0578 15.1264 22.2898 14.4638 22.7538C13.8144 23.2046 13.4234 23.9006 13.2909 24.8418H3.19254C3.32506 22.9858 3.9148 21.2757 4.96174 19.7113C6.02194 18.1337 7.56585 16.8743 9.59348 15.9331C11.6211 14.9786 14.1523 14.5013 17.1871 14.5013C19.3738 14.5013 21.3352 14.7598 23.0712 15.2769C24.8073 15.7806 26.285 16.4899 27.5042 17.4046C28.7234 18.3061 29.6511 19.3667 30.2872 20.5863C30.9366 21.7927 31.2613 23.1051 31.2613 24.5236V45.4432H21.0039V41.1479H20.7653C20.1557 42.288 19.4136 43.2094 18.5389 43.912C17.6775 44.6146 16.6902 45.125 15.577 45.4432C14.477 45.7614 13.2644 45.9205 11.9392 45.9205ZM15.5173 39.0003C16.3522 39.0003 17.1341 38.828 17.863 38.4833C18.6052 38.1386 19.2081 37.6414 19.672 36.9919C20.1358 36.3423 20.3677 35.5535 20.3677 34.6255V32.0801C20.0762 32.1994 19.7647 32.3121 19.4334 32.4182C19.1154 32.5242 18.7708 32.6237 18.3997 32.7165C18.0419 32.8093 17.6576 32.8954 17.2468 32.975C16.8492 33.0545 16.4318 33.1274 15.9944 33.1937C15.1463 33.3263 14.4505 33.545 13.9072 33.8499C13.3771 34.1416 12.9795 34.5062 12.7144 34.9436C12.4626 35.3679 12.3367 35.8451 12.3367 36.3754C12.3367 37.2239 12.6349 37.8734 13.2313 38.3242C13.8276 38.7749 14.5897 39.0003 15.5173 39.0003ZM36.8223 45.4432V39.398L50.1808 23.41V23.251H37.2994V14.899H63.1417V21.5806L50.976 36.9322V37.0913H63.6188V45.4432H36.8223ZM80.6598 2V45.4432H69.6868V2H80.6598ZM100.961 46C97.6478 46 94.8118 45.3438 92.4529 44.0313C90.0939 42.7056 88.285 40.8629 87.026 38.5032C85.767 36.1301 85.1375 33.3793 85.1375 30.2507C85.1375 27.122 85.767 24.3778 87.026 22.0181C88.285 19.645 90.0939 17.8023 92.4529 16.4899C94.8118 15.1642 97.6478 14.5013 100.961 14.5013C104.274 14.5013 107.11 15.1642 109.469 16.4899C111.828 17.8023 113.637 19.645 114.896 22.0181C116.155 24.3778 116.784 27.122 116.784 30.2507C116.784 33.3793 116.155 36.1301 114.896 38.5032C113.637 40.8629 111.828 42.7056 109.469 44.0313C107.11 45.3438 104.274 46 100.961 46ZM101.04 37.8867C101.968 37.8867 102.77 37.5752 103.446 36.9521C104.122 36.329 104.645 35.4408 105.016 34.2874C105.387 33.1341 105.573 31.762 105.573 30.1711C105.573 28.567 105.387 27.1949 105.016 26.0548C104.645 24.9015 104.122 24.0132 103.446 23.3902C102.77 22.7671 101.968 22.4555 101.04 22.4555C100.06 22.4555 99.2182 22.7671 98.5159 23.3902C97.8135 24.0132 97.2767 24.9015 96.9057 26.0548C96.5346 27.1949 96.3491 28.567 96.3491 30.1711C96.3491 31.762 96.5346 33.1341 96.9057 34.2874C97.2767 35.4408 97.8135 36.329 98.5159 36.9521C99.2182 37.5752 100.06 37.8867 101.04 37.8867Z" fill="white"/>
<path d="M100.961 14.6514C104.254 14.6514 107.063 15.3105 109.395 16.6211H109.396C111.73 17.9195 113.518 19.7408 114.763 22.0879V22.0889C116.009 24.4234 116.635 27.1428 116.635 30.251C116.635 33.1648 116.085 35.7428 114.99 37.9883L114.763 38.4326C113.518 40.7668 111.73 42.5886 109.395 43.9004C107.063 45.1977 104.254 45.8496 100.961 45.8496C97.8733 45.8496 95.2109 45.2765 92.9686 44.1357L92.5262 43.9004C90.3379 42.6706 88.6294 40.9924 87.3983 38.8643L87.158 38.4326C85.9125 36.0847 85.2879 33.3589 85.2879 30.251C85.2879 27.1429 85.9125 24.4234 87.158 22.0889V22.0879C88.3255 19.8873 89.9705 18.1487 92.0945 16.8701L92.5262 16.6211C94.8581 15.3106 97.6677 14.6514 100.961 14.6514ZM17.1873 14.6514C19.3622 14.6514 21.3086 14.9088 23.0281 15.4209H23.0291C24.7508 15.9205 26.2116 16.6225 27.4139 17.5244L27.4149 17.5254C28.6176 18.4147 29.5296 19.458 30.1541 20.6553L30.1551 20.6572C30.7922 21.8409 31.1111 23.1289 31.1111 24.5234V45.293H21.1541V40.998H20.6756L20.6326 41.0771C20.0312 42.202 19.3017 43.1068 18.4451 43.7949L18.4442 43.7959C17.5992 44.4851 16.6303 44.986 15.5359 45.2988H15.535C14.4506 45.6125 13.2525 45.7705 11.9393 45.7705C10.0076 45.7705 8.30547 45.455 6.8299 44.8281H6.83087C5.37259 44.1899 4.2298 43.2281 3.39825 41.9414C2.56982 40.6595 2.15021 39.0196 2.15021 37.0117C2.15021 35.3579 2.43234 33.9565 2.99005 32.8018V32.8008C3.54975 31.629 4.32916 30.674 5.32892 29.9336C6.33374 29.1895 7.50393 28.6198 8.84064 28.2266V28.2275C10.1945 27.8331 11.6548 27.5756 13.2225 27.457H13.2234C14.9349 27.3243 16.3118 27.1644 17.3524 26.9775H17.3543C18.4074 26.7775 19.1899 26.5009 19.6815 26.1357H19.6824L19.6844 26.1338C20.1846 25.7477 20.4382 25.2333 20.4383 24.6035V24.5234C20.4382 23.6833 20.1127 23.0258 19.4598 22.5713C18.8187 22.1252 18.0042 21.9082 17.0281 21.9082C16.0931 21.9082 15.2968 22.089 14.6473 22.46L14.3777 22.6309C13.7185 23.0886 13.32 23.7822 13.1658 24.6914H3.35626C3.50879 22.9239 4.08353 21.2915 5.08575 19.7939C6.12815 18.2431 7.65005 17.001 9.65704 16.0693V16.0684C11.6589 15.126 14.1672 14.6514 17.1873 14.6514ZM80.5096 2.15039V45.293H69.8367V2.15039H80.5096ZM62.992 15.0488V21.5273L50.8582 36.8389L50.826 36.8799V37.2412H63.4686V45.293H36.9725V39.4512L50.2957 23.5059L50.3309 23.4648V23.1006H37.449V15.0488H62.992ZM20.3113 31.9414C20.0238 32.0591 19.7155 32.1704 19.3875 32.2754L19.3856 32.2764C19.0718 32.381 18.7307 32.4793 18.3631 32.5713H18.3621C18.0078 32.6632 17.6266 32.7491 17.2186 32.8281H17.2176C17.0202 32.8676 16.8176 32.9052 16.6102 32.9414L15.9715 33.0459C15.2196 33.1634 14.5785 33.3482 14.0526 33.6045L13.8338 33.7188C13.2853 34.0207 12.8666 34.4027 12.5858 34.8662V34.8672C12.3192 35.3162 12.1864 35.82 12.1863 36.375C12.1863 37.2632 12.5012 37.9611 13.1404 38.4443C13.7686 38.9191 14.5651 39.1504 15.5174 39.1504C16.3736 39.1504 17.177 38.9726 17.9266 38.6182C18.6912 38.2629 19.3146 37.75 19.7938 37.0791C20.2786 36.4001 20.5174 35.579 20.5174 34.625V31.8564L20.3113 31.9414ZM101.041 22.3057C100.025 22.3057 99.147 22.6297 98.4158 23.2783C97.6886 23.9237 97.1394 24.8374 96.7625 26.0088C96.3854 27.1678 96.1991 28.5563 96.199 30.1709C96.199 31.7725 96.3855 33.1611 96.7625 34.333C97.1394 35.5046 97.6884 36.4191 98.4158 37.0645C99.147 37.713 100.025 38.0371 101.041 38.0371C102.006 38.037 102.844 37.7113 103.548 37.0625C104.248 36.4172 104.782 35.5034 105.159 34.333C105.536 33.1611 105.722 31.7726 105.722 30.1709C105.722 28.7581 105.58 27.5184 105.292 26.4541L105.159 26.0088C104.782 24.8386 104.248 23.9256 103.548 23.2803C102.844 22.6315 102.006 22.3057 101.041 22.3057Z" stroke="#111111" stroke-width="0.3"/>
</g>
<defs>
<filter id="filter0_di_23376_1823" x="-0.000183105" y="0" width="118.785" height="48" filterUnits="userSpaceOnUse" color-interpolation-filters="sRGB">
<feFlood flood-opacity="0" result="BackgroundImageFix"/>
<feColorMatrix in="SourceAlpha" type="matrix" values="0 0 0 0 0 0 0 0 0 0 0 0 0 0 0 0 0 0 127 0" result="hardAlpha"/>
<feOffset/>
<feGaussianBlur stdDeviation="1"/>
<feComposite in2="hardAlpha" operator="out"/>
<feColorMatrix type="matrix" values="0 0 0 0 0 0 0 0 0 0 0 0 0 0 0 0 0 0 1 0"/>
<feBlend mode="normal" in2="BackgroundImageFix" result="effect1_dropShadow_23376_1823"/>
<feBlend mode="normal" in="SourceGraphic" in2="effect1_dropShadow_23376_1823" result="shape"/>
<feColorMatrix in="SourceAlpha" type="matrix" values="0 0 0 0 0 0 0 0 0 0 0 0 0 0 0 0 0 0 127 0" result="hardAlpha"/>
<feOffset/>
<feGaussianBlur stdDeviation="1"/>
<feComposite in2="hardAlpha" operator="arithmetic" k2="-1" k3="1"/>
<feColorMatrix type="matrix" values="0 0 0 0 0 0 0 0 0 0 0 0 0 0 0 0 0 0 1 0"/>
<feBlend mode="normal" in2="shape" result="effect2_innerShadow_23376_1823"/>
</filter>
</defs>
</svg>
